# xmcd CD database file
#
# Track frame offsets:
#	150
#	26194
#	46404
#	61291
#	93457
#	119518
#	145646
#	163900
#	183953
#
# Disc length: 3222 seconds
#
# Revision: 1
# Processed by: cddbd v1.5.2PL0 Copyright (c) Steve Scherf et al.
# Submitted via: CDex 1.70beta2
#
DISCID=7c0c9409
DTITLE=Georgie Fame - Shorty
DYEAR=1970
DGENRE=Blues
TTITLE0=Oliver's Gone (Georgie Fame)
TTITLE1=Bluesology (M.Jackson)
TTITLE2=Sakatchewan Sunrise (R.Jones-J.A.Ryan)
TTITLE3=Parchman Farm (M.Allison)
TTITLE4=Is It Really The Same (M.O'Neill-M.Garrett)
TTITLE5=Seventh Son (W.Dixon)
TTITLE6=Somebody Stole My Thunder (J.A.Ryan-J.Lacy)
TTITLE7=Inside Story (G.Fame-J.A.Ryan)
TTITLE8=Fully Booked (G.Fame-J.A.Ryan)
EXTD=YEAR: 1970
EXTT0=
EXTT1=
EXTT2=
EXTT3=
EXTT4=
EXTT5=
EXTT6=
EXTT7=
EXTT8=
PLAYORDER=
